<svg width="64" height="64" viewBox="0 0 64 64" fill="none" xmlns="http://www.w3.org/2000/svg">
  <rect width="64" height="64" rx="12" fill="#1DB954"/>
  <path d="M32 12C20.954 12 12 20.954 12 32C12 43.046 20.954 52 32 52C43.046 52 52 43.046 52 32C52 20.954 43.046 12 32 12ZM40.568 39.688C40.286 40.124 39.726 40.268 39.29 39.986C34.658 37.024 28.826 36.358 19.982 38.254C19.478 38.368 18.98 38.04 18.866 37.536C18.752 37.032 19.08 36.534 19.584 36.42C29.124 34.372 35.552 35.138 40.66 38.446C41.096 38.728 41.24 39.252 40.568 39.688ZM42.914 34.148C42.554 34.7 41.838 34.874 41.286 34.514C35.978 31.106 28.104 30.128 20.014 32.312C19.384 32.486 18.724 32.122 18.55 31.492C18.376 30.862 18.74 30.202 19.37 30.028C28.35 27.612 37.012 28.702 43.074 32.636C43.626 32.996 43.8 33.596 42.914 34.148ZM43.128 28.376C36.828 24.496 24.336 24.176 18.326 26.32C17.576 26.536 16.784 26.108 16.568 25.358C16.352 24.608 16.78 23.816 17.53 23.6C24.336 21.204 37.824 21.564 45.024 26.036C45.696 26.444 45.912 27.344 45.504 28.016C45.096 28.688 44.196 28.904 43.524 28.496L43.128 28.376Z" fill="white"/>
</svg>
